<svg xmlns="http://www.w3.org/2000/svg" width="15" height="18.214" viewBox="0 0 15 18.214">
  <g id="Filled" transform="translate(-5.412 -4)">
    <path id="Path_86" data-name="Path 86" d="M18.269,10.429V9.357a5.357,5.357,0,1,0-10.714,0v1.071a2.143,2.143,0,0,0-2.143,2.143v7.5a2.143,2.143,0,0,0,2.143,2.143H18.269a2.143,2.143,0,0,0,2.143-2.143v-7.5a2.143,2.143,0,0,0-2.143-2.143ZM9.7,9.357a3.214,3.214,0,1,1,6.428,0v1.071H9.7Zm4.286,7.5a1.071,1.071,0,0,1-2.143,0V14.714a1.071,1.071,0,0,1,2.143,0Z" transform="translate(0)" fill="#b1b1b1"/>
  </g>
</svg>
